<?xml version="1.0" encoding="UTF-8" standalone="no"?>
<svg width="800" height="533" viewBox="0 0 211.66667 141.02292" version="1.1" id="svg39" sodipodi:docname="Flag_of_British_Columbia.svg" inkscape:version="1.2.2 (732a01da63, 2022-12-09)" xmlns:inkscape="http://www.inkscape.org/namespaces/inkscape" xmlns:sodipodi="http://sodipodi.sourceforge.net/DTD/sodipodi-0.dtd" xmlns="http://www.w3.org/2000/svg" xmlns:svg="http://www.w3.org/2000/svg">
  <sodipodi:namedview id="namedview41" pagecolor="#ffffff" bordercolor="#000000" borderopacity="0.25" inkscape:showpageshadow="2" inkscape:pageopacity="0.0" inkscape:pagecheckerboard="0" inkscape:deskcolor="#d1d1d1" showgrid="false" inkscape:zoom="1.509" inkscape:cx="464.21471" inkscape:cy="275.01657" inkscape:window-width="2560" inkscape:window-height="1334" inkscape:window-x="-11" inkscape:window-y="-11" inkscape:window-maximized="1" inkscape:current-layer="svg39"/>
  <defs id="defs5">
    <clipPath id="a">
      <path d="M 379.125,376.625 H 576 V 494.75 H 379.125 Z" id="path2"/>
    </clipPath>
  </defs>
  <g stroke-width="0.2625" id="g37" transform="matrix(0.7999939,0,0,0.88832341,0,-1.9793916e-4)">
    <path d="M 0,158.75 H 264.58333 V 0 H 0 Z" fill="#ffffff" id="path7"/>
    <g clip-path="url(#a)" transform="matrix(1.34392,0,0,-1.34392,-509.5119,664.90211)" id="g35">
      <path d="m 379.1254,426.2508 c 12.289,0 12.325,-5.097 24.615,-5.097 12.297,0 12.307,5.097 24.603,5.097 12.299,0 12.353,-5.097 24.651,-5.097 12.304,0 12.304,5.097 24.607,5.097 12.326,0 12.272,-5.097 24.597,-5.097 12.3,0 12.292,5.097 24.594,5.097 12.308,0 12.271,-5.097 24.579,-5.097 12.327,0 12.3,5.097 24.628,5.097 v 9.823 c -12.315,0 -12.314,-5.097 -24.628,-5.097 -12.291,0 -12.291,5.097 -24.579,5.097 -12.297,0 -12.297,-5.097 -24.594,-5.097 -12.298,0 -12.298,5.097 -24.597,5.097 -12.303,0 -12.303,-5.097 -24.607,-5.097 -12.325,0 -12.325,5.097 -24.651,5.097 -12.301,0 -12.301,-5.097 -24.603,-5.097 -12.307,0 -12.307,5.097 -24.615,5.097 z m 0,-19.4923 c 12.289,0 12.325,-5.097 24.615,-5.097 12.297,0 12.307,5.097 24.603,5.097 12.299,0 12.353,-5.097 24.651,-5.097 12.304,0 12.304,5.097 24.607,5.097 12.326,0 12.272,-5.097 24.597,-5.097 12.3,0 12.292,5.097 24.594,5.097 12.308,0 12.271,-5.097 24.579,-5.097 12.327,0 12.3,5.097 24.628,5.097 v 9.824 c -12.315,0 -12.314,-5.098 -24.628,-5.098 -12.291,0 -12.291,5.098 -24.579,5.098 -12.297,0 -12.297,-5.098 -24.594,-5.098 -12.298,0 -12.298,5.098 -24.597,5.098 -12.303,0 -12.303,-5.098 -24.607,-5.098 -12.325,0 -12.325,5.098 -24.651,5.098 -12.301,0 -12.301,-5.098 -24.603,-5.098 -12.307,0 -12.307,5.098 -24.615,5.098 z m 0,-19.1143 c 12.289,0 12.325,-5.096 24.615,-5.096 12.297,0 12.307,5.096 24.603,5.096 12.299,0 12.353,-5.096 24.651,-5.096 12.304,0 12.304,5.096 24.607,5.096 12.326,0 12.272,-5.096 24.597,-5.096 12.3,0 12.292,5.096 24.594,5.096 12.308,0 12.271,-5.096 24.579,-5.096 12.327,0 12.3,5.096 24.628,5.096 v 9.824 c -12.315,0 -12.314,-5.098 -24.628,-5.098 -12.291,0 -12.291,5.098 -24.579,5.098 -12.297,0 -12.297,-5.098 -24.594,-5.098 -12.298,0 -12.298,5.098 -24.597,5.098 -12.303,0 -12.303,-5.098 -24.607,-5.098 -12.325,0 -12.325,5.098 -24.651,5.098 -12.301,0 -12.301,-5.098 -24.603,-5.098 -12.307,0 -12.307,5.098 -24.615,5.098 z" fill="#0047bb" id="path9"/>
      <path d="m 472.3632,442.7233 v 20.783 h -93.238 v 10.459 h 93.238 v 20.784 h 10.458 v -20.784 h 93.178 v -10.459 h -93.178 v -20.783 z" fill="#ffffff" id="path11"/>
      <path d="m 575.9991,473.9656 h -93.177 v 20.783 h -10.459 v -20.783 h -93.238 v -10.459 h 93.238 v -20.783 h 10.459 v 20.783 h 93.177 z" fill="#d22630" id="path13"/>
      <path d="m 444.8128,477.4522 h -27.336 l -38.351,10.085 v 7.212 z m 24.0635,-17.4324 h -24.202 l -65.549,-17.362 h 25.415 l 64.336,16.783 z m 17.4316,18.0118 v -0.579 h 24.607 l 65.084,17.297 h -26.924 z m 24.0116,-18.0118 h 26.549 l 39.131,-10.294 v -7.068 z" fill="#d22630" id="path15"/>
      <path d="m 409.824,477.4522 h -30.699 v 8.052 z m 59.0523,2.6121 v 14.685 h -55.226 z m 17.4316,14.6846 v -14.685 l 55.115,14.685 z m 58.2142,-17.2967 h 31.477 v 8.053 z m 0,-17.4324 h 31.477 v -8.26 z m -2.293,-17.3622 -55.921,14.75 v -14.75 z m -73.3528,14.7498 v -14.75 h -55.226 z m -58.7099,2.6124 -31.041,-8.26 v 8.26 z" fill="#0047bb" id="path17"/>
      <path d="M 575.999,442.384 H 379.125 v 0.547 h 196.874 z" fill="#0047bb" id="path19"/>
      <path d="m 559.1937,404.7553 c -3.158,-0.014 -9.18,-1.229 -14.025,-9.457 -3.445,-5.871 -5.246,-6.761 -7.738,-7.992 -0.166,-0.081 -0.333,-0.165 -0.506,-0.251 l -0.179,-0.09 c -3.648,-1.832 -5.422,-2.723 -7.383,-5.128 -0.058,0.047 -0.117,0.094 -0.175,0.141 19.076,29.52 22.723,35.526 22.723,35.526 0,0 -25.923,-26.867 -27.961,-29.119 l -1.54,-1.635 c -0.197,0.122 -0.396,0.245 -0.594,0.366 0.156,0.549 0.357,1.177 0.672,1.797 1.339,2.634 2.472,3.805 3.569,4.936 1.044,1.078 2.032,2.096 3.058,4.191 1.566,3.196 1.847,5.089 2.143,7.093 0.145,0.982 0.296,1.998 0.6,3.25 1.282,5.258 2.984,7.06 9.066,11.431 l -0.004,0.008 1.181,0.873 c 0,0 -0.637,0.164 -1.636,0.104 -0.085,-0.004 -0.199,-0.012 -0.338,-0.026 -0.004,-0.001 -0.007,-0.001 -0.012,-0.001 v -10e-4 c -2.057,-0.21 -9.517,-1.733 -12.897,-12.748 -2.006,-6.539 -3.645,-7.898 -5.721,-9.618 -0.148,-0.123 -0.3,-0.249 -0.453,-0.378 -3.458,-2.905 -4.841,-4.164 -6.212,-7.128 -0.035,0.017 -0.07,0.033 -0.106,0.05 1.323,3.623 2.56,7.072 3.739,10.39 9.598,25.931 11.101,30.683 11.101,30.683 0,0 -19.205,-31.14 -20.548,-33.508 l -2.494,-4.178 c -0.106,0.038 -0.211,0.075 -0.318,0.113 0.097,1.208 0.36,2.61 0.786,4.176 0.781,2.872 1.657,4.263 2.505,5.608 0.808,1.282 1.571,2.493 2.152,4.773 0.888,3.479 0.776,5.405 0.658,7.443 -0.058,1 -0.118,2.034 -0.075,3.334 0.175,5.255 1.395,7.452 5.996,12.628 l 0.013,0.015 c 0.179,0.202 0.354,0.398 0.543,0.609 l -0.002,0.002 0.977,1.105 c 0,0 -0.634,0.029 -1.572,-0.224 -0.908,-0.227 -9.25,-2.652 -10.434,-15.475 -0.636,-6.874 -1.969,-8.561 -3.658,-10.696 -0.122,-0.155 -0.246,-0.312 -0.373,-0.474 -3.327,-4.263 -3.996,-5.69 -4.745,-10.658 -0.033,0.007 -0.066,0.016 -0.099,0.024 0.104,0.854 0.201,1.699 0.301,2.548 l 0.015,0.022 c 4.223,34.893 4.725,41.214 4.725,41.214 0,0 -11.391,-35.08 -12.238,-37.748 l -1.301,-4.166 c -0.028,0.002 -0.056,0.006 -0.083,0.009 -0.037,0.005 -0.074,0.009 -0.111,0.014 -0.009,0.056 -0.02,0.113 -0.029,0.17 -0.172,0.989 -0.385,2.219 -0.337,3.761 0.097,3.034 0.596,4.472 1.079,5.863 0.455,1.309 0.885,2.546 0.967,4.875 0.157,4.518 -0.395,6.232 -1.035,8.218 -0.28,0.869 -0.569,1.768 -0.815,2.987 -1.063,5.241 -0.355,7.703 3.031,14.173 l 0.942,1.779 c 0,0 -0.7,-0.14 -1.629,-0.677 -0.022,-0.013 -0.046,-0.027 -0.069,-0.04 -0.043,-0.026 -0.082,-0.046 -0.126,-0.073 l 0.001,-0.002 c -0.691,-0.43 -1.848,-1.329 -2.96,-2.719 -2.07,-2.589 -4.311,-7.271 -3.233,-14.869 0.973,-6.865 0.066,-8.848 -1.082,-11.359 -0.084,-0.181 -0.168,-0.366 -0.253,-0.555 -2.074,-4.61 -2.72,-6.276 -2.469,-10.695 -0.03,10e-4 -0.058,10e-4 -0.087,0.002 -0.015,10e-4 -0.03,10e-4 -0.044,10e-4 -0.421,4.413 -0.873,8.709 -1.334,12.97 -2.465,25.79 -3.141,30.042 -3.141,30.042 0,0 -0.676,-4.252 -3.142,-30.042 -0.461,-4.261 -0.913,-8.557 -1.333,-12.97 -0.015,0 -0.03,0 -0.045,-10e-4 -0.029,-0.001 -0.058,-0.001 -0.087,-0.002 0.251,4.419 -0.395,6.085 -2.469,10.695 -0.085,0.189 -0.169,0.374 -0.252,0.555 -1.149,2.511 -2.057,4.494 -1.082,11.359 1.078,7.598 -1.164,12.28 -3.234,14.869 -1.112,1.39 -2.268,2.289 -2.961,2.719 l 0.002,0.002 c -0.043,0.027 -0.083,0.047 -0.125,0.073 -0.024,0.013 -0.047,0.027 -0.07,0.04 -0.929,0.537 -1.629,0.677 -1.629,0.677 l 0.942,-1.779 c 3.386,-6.47 4.094,-8.932 3.032,-14.173 -0.247,-1.219 -0.536,-2.118 -0.816,-2.987 -0.639,-1.986 -1.192,-3.7 -1.034,-8.218 0.081,-2.329 0.511,-3.566 0.966,-4.875 0.483,-1.391 0.982,-2.829 1.079,-5.863 0.049,-1.542 -0.165,-2.772 -0.336,-3.761 -0.011,-0.057 -0.021,-0.114 -0.03,-0.17 -0.037,-0.005 -0.074,-0.009 -0.11,-0.014 -0.028,-0.003 -0.056,-0.007 -0.083,-0.009 l -1.301,4.166 c -0.848,2.668 -12.239,37.748 -12.239,37.748 0,0 0.503,-6.321 4.725,-41.214 l 0.015,-0.022 c 0.1,-0.849 0.197,-1.694 0.301,-2.548 -0.033,-0.008 -0.065,-0.017 -0.098,-0.024 -0.749,4.968 -1.419,6.395 -4.746,10.658 -0.126,0.162 -0.251,0.319 -0.373,0.474 -1.689,2.135 -3.023,3.822 -3.658,10.696 -1.185,12.823 -9.526,15.248 -10.434,15.475 -0.938,0.253 -1.573,0.224 -1.573,0.224 l 0.978,-1.105 -0.002,-0.002 c 0.19,-0.211 0.364,-0.407 0.543,-0.609 l 0.013,-0.015 c 4.602,-5.176 5.82,-7.373 5.996,-12.628 0.044,-1.3 -0.016,-2.334 -0.074,-3.334 -0.119,-2.038 -0.231,-3.964 0.657,-7.443 0.581,-2.28 1.345,-3.491 2.153,-4.773 0.847,-1.345 1.724,-2.736 2.504,-5.608 0.426,-1.566 0.69,-2.968 0.786,-4.176 -0.107,-0.038 -0.212,-0.075 -0.318,-0.113 l -2.494,4.178 c -1.343,2.368 -20.548,33.508 -20.548,33.508 0,0 1.503,-4.752 11.101,-30.683 1.179,-3.318 2.415,-6.767 3.739,-10.39 -0.035,-0.017 -0.07,-0.033 -0.105,-0.05 -1.371,2.964 -2.754,4.223 -6.213,7.128 -0.153,0.129 -0.304,0.255 -0.453,0.378 -2.075,1.72 -3.715,3.079 -5.721,9.618 -3.38,11.015 -10.84,12.538 -12.897,12.748 v 10e-4 c -0.004,0 -0.008,0 -0.012,0.001 -0.139,0.014 -0.253,0.022 -0.338,0.026 -0.998,0.06 -1.636,-0.104 -1.636,-0.104 l 1.181,-0.873 -0.003,-0.008 c 6.081,-4.371 7.783,-6.173 9.065,-11.431 0.305,-1.252 0.455,-2.268 0.6,-3.25 0.297,-2.004 0.577,-3.897 2.144,-7.093 1.025,-2.095 2.013,-3.113 3.058,-4.191 1.096,-1.131 2.23,-2.302 3.569,-4.936 0.314,-0.62 0.515,-1.248 0.671,-1.797 -0.198,-0.121 -0.397,-0.244 -0.593,-0.366 l -1.541,1.635 c -2.038,2.252 -27.961,29.119 -27.961,29.119 0,0 3.647,-6.006 22.724,-35.526 -0.059,-0.047 -0.118,-0.094 -0.176,-0.141 -1.961,2.405 -3.735,3.296 -7.383,5.128 l -0.179,0.09 c -0.172,0.086 -0.34,0.17 -0.506,0.251 -2.492,1.231 -4.293,2.121 -7.738,7.992 -4.845,8.228 -10.866,9.443 -14.025,9.457 -1.11,0.005 -2.361,-0.193 -3.87,-0.57 0,0 1.227,-0.333 2.34,-0.796 6.565,-2.742 8.601,-4.139 10.989,-8.807 0.583,-1.142 0.963,-2.092 1.33,-3.011 0.748,-1.869 1.454,-3.634 3.694,-6.369 1.469,-1.798 2.653,-2.558 3.906,-3.363 1.315,-0.845 2.674,-1.719 4.567,-3.968 0.363,-0.432 0.64,-0.87 0.855,-1.246 h 115.642 c 0.215,0.376 0.491,0.814 0.854,1.246 1.893,2.249 3.253,3.123 4.567,3.968 1.254,0.805 2.438,1.565 3.906,3.363 2.241,2.735 2.947,4.5 3.694,6.369 0.367,0.919 0.747,1.869 1.331,3.011 2.387,4.668 4.423,6.065 10.988,8.807 1.114,0.463 2.341,0.796 2.341,0.796 -1.51,0.377 -2.761,0.575 -3.871,0.57 M 417.8256,376.6252 c -5.601,3.781 -33.438,22.094 -33.438,22.094 0,0 14.18,-14.628 21.484,-22.094 z m -23.6051,0 h 5.85 l -0.386,0.386 c -0.423,0.424 -0.813,0.83 -1.159,1.205 -5.083,5.48 -10.015,6.63 -13.081,6.63 -1.587,0 -3.066,-0.263 -4.186,-0.735 -1.121,-0.471 -1.642,-0.808 -1.642,-0.808 l 1.677,-0.259 c 6.874,-1.357 9.415,-2.163 12.927,-6.419 m 143.0785,0 c 5.601,3.781 33.438,22.094 33.438,22.094 0,0 -14.181,-14.628 -21.484,-22.094 z m 23.6047,0 h -5.85 l 0.386,0.386 c 0.423,0.424 0.813,0.83 1.159,1.205 5.083,5.48 10.014,6.63 13.081,6.63 1.586,0 3.065,-0.263 4.186,-0.735 1.121,-0.471 1.642,-0.808 1.642,-0.808 l -1.677,-0.259 c -6.874,-1.357 -9.415,-2.163 -12.927,-6.419" id="path21"/>
      <path d="m 538.2943,376.6252 h 10.183 c 7.3,7.447 15.236,15.509 19.431,19.699 -9.867,-6.465 -19.737,-13.071 -29.614,-19.699 m 21.9663,0.0755 c 0.056,0.071 0.114,0.144 0.167,0.209 3.616,4.405 6.141,5.258 13.298,6.671 10e-4,-0.037 -7.92,3.757 -16.724,-5.735 -0.356,-0.386 -0.731,-0.774 -1.1,-1.145 z" fill="#ffd200" id="path23"/>
      <path d="m 405.876,394.8312 c 1.817,-3.556 1.708,-5.312 4.961,-9.283 2.955,-3.615 4.736,-2.889 8.468,-7.325 0.448,-0.534 0.781,-1.08 1.064,-1.598 h 114.423 c -0.008,0.009 -0.016,0.017 -0.024,0.026 0.28,0.509 0.611,1.048 1.051,1.572 3.732,4.436 5.513,3.71 8.468,7.325 3.253,3.971 3.144,5.727 4.961,9.283 2.582,5.047 4.886,6.421 11.668,9.233 0,-0.029 -8.717,2.097 -15.275,-9.042 -3.761,-6.41 -5.723,-7.078 -8.471,-8.455 -3.9,-1.959 -5.562,-2.77 -7.54,-5.269 -0.334,0.27 -0.671,0.537 -1.013,0.803 6.906,10.823 13.81,21.547 20.715,32.069 -8.881,-9.152 -17.762,-18.512 -26.648,-27.936 -0.473,0.296 -0.953,0.588 -1.438,0.876 0.178,0.638 0.393,1.341 0.753,2.05 2.64,5.197 4.56,4.907 6.623,9.122 2.272,4.632 1.753,6.324 2.705,10.231 1.351,5.544 3.286,7.439 9.277,11.745 0,-0.012 -9.038,0.072 -12.864,-12.396 -2.195,-7.154 -3.968,-8.258 -6.345,-10.253 -3.493,-2.934 -4.815,-4.116 -6.21,-7.255 -0.355,0.17 -0.715,0.338 -1.076,0.503 4.701,12.865 8.476,23.787 13.173,36.455 -7.089,-11.673 -13.257,-21.644 -20.353,-33.54 -0.427,0.151 -0.857,0.299 -1.29,0.444 0.068,1.104 0.291,2.591 0.824,4.553 1.541,5.667 3.487,5.789 4.655,10.372 1.287,5.043 0.431,6.603 0.566,10.66 0.193,5.763 1.706,8.052 6.693,13.599 0,0 -8.868,-1.883 -10.08,-15.007 -0.695,-7.524 -2.215,-8.984 -4.145,-11.456 -3.403,-4.362 -3.953,-5.707 -4.708,-10.901 -0.385,0.098 -0.769,0.196 -1.156,0.287 1.685,13.82 3.069,26.183 4.751,39.959 -4.167,-13.23 -8.037,-25.083 -12.208,-38.388 -0.383,0.063 -0.735,0.091 -1.119,0.15 -0.169,1.071 -0.5,2.521 -0.439,4.437 0.187,5.902 1.879,5.979 2.045,10.74 0.225,6.435 -1.031,7.085 -1.84,11.077 -1.149,5.675 -0.21,8.295 3.337,15.021 10e-4,0.002 -8.16,-4.164 -6.302,-17.264 1.066,-7.511 -0.073,-9.319 -1.377,-12.215 -2.189,-4.864 -2.711,-6.381 -2.384,-11.033 -0.175,0.011 -1.038,0.022 -1.213,0.03 -1.327,13.909 -2.652,26.727 -3.977,40.639 -1.325,-13.912 -2.65,-26.73 -3.977,-40.639 -0.175,-0.008 -1.038,-0.019 -1.213,-0.03 0.327,4.652 -0.195,6.169 -2.383,11.033 -1.305,2.896 -2.444,4.704 -1.378,12.215 1.859,13.1 -6.302,17.266 -6.302,17.264 3.547,-6.726 4.486,-9.346 3.337,-15.021 -0.809,-3.992 -2.064,-4.642 -1.84,-11.077 0.166,-4.761 1.857,-4.838 2.045,-10.74 0.061,-1.916 -0.269,-3.366 -0.439,-4.437 -0.384,-0.059 -0.736,-0.087 -1.118,-0.15 -4.172,13.305 -7.956,24.822 -12.123,38.053 1.686,-13.808 2.989,-25.87 4.677,-39.721 -0.385,-0.095 -0.77,-0.192 -1.152,-0.292 -0.763,5.282 -1.298,6.612 -4.724,11.003 -1.93,2.472 -3.449,3.932 -4.145,11.456 -1.212,13.124 -10.08,15.007 -10.08,15.007 4.987,-5.547 6.5,-7.836 6.693,-13.599 0.135,-4.057 -0.721,-5.617 0.566,-10.66 1.168,-4.583 3.115,-4.705 4.655,-10.372 0.558,-2.055 0.774,-3.584 0.83,-4.701 -0.408,-0.14 -0.814,-0.283 -1.217,-0.429 -7.122,11.941 -13.318,21.909 -20.434,33.625 4.72,-12.73 8.52,-23.668 13.244,-36.596 -0.355,-0.167 -0.709,-0.335 -1.06,-0.506 -1.427,3.285 -2.731,4.453 -6.295,7.447 -2.376,1.995 -4.15,3.099 -6.345,10.253 -3.826,12.468 -12.864,12.384 -12.864,12.396 5.991,-4.306 7.926,-6.201 9.277,-11.745 0.952,-3.907 0.433,-5.599 2.704,-10.231 2.064,-4.215 3.984,-3.925 6.624,-9.122 0.407,-0.802 0.63,-1.596 0.822,-2.297 -0.447,-0.27 -0.89,-0.542 -1.328,-0.818 -8.946,9.487 -17.886,18.911 -26.827,28.125 6.957,-10.601 13.913,-21.408 20.872,-32.314 -0.333,-0.262 -0.662,-0.526 -0.988,-0.791 -2.062,2.683 -3.704,3.483 -7.722,5.502 -2.748,1.377 -4.709,2.045 -8.47,8.455 -6.559,11.139 -15.277,9.013 -15.276,9.042 6.782,-2.812 9.086,-4.186 11.668,-9.233 m -11.1794,-17.9216 c 0.072,-0.088 0.15,-0.186 0.227,-0.284 h 4.374 c -0.394,0.394 -0.795,0.808 -1.174,1.22 -8.805,9.492 -16.726,5.698 -16.725,5.735 7.157,-1.413 9.682,-2.266 13.298,-6.671 m 22.133,-0.2844 c -9.876,6.628 -19.746,13.234 -29.615,19.699 4.228,-4.221 12.157,-12.282 19.422,-19.699 z m 143.5984,0.2844 c -0.072,-0.088 -0.15,-0.186 -0.227,-0.284 h -4.374 c 0.394,0.394 0.795,0.808 1.174,1.22 8.805,9.492 16.726,5.698 16.725,5.735 -7.157,-1.413 -9.683,-2.266 -13.298,-6.671 m -22.1331,-0.2844 c 9.876,6.628 19.747,13.234 29.614,19.698 -4.227,-4.22 -12.156,-12.281 -19.42,-19.698 z" fill="#ffcd00" id="path25"/>
      <path d="m 535.1061,377.0748 c -14.784,14.021 -35.697,22.062 -57.376,22.062 -21.619,0 -42.493,-8.004 -57.268,-21.959 l -0.557,-0.477 h 1.161 c 14.623,13.804 35.275,21.72 56.664,21.72 21.396,0 42.037,-7.916 56.66,-21.72 h 1.094 z" id="path27"/>
      <path d="m 491.6514,473.5247 c -0.228,-0.241 -0.457,-0.482 -0.686,-0.726 -1.083,-1.283 -2.18,-2.607 -3.273,-3.965 -0.806,2.247 -1.708,4.497 -2.647,6.744 -1.309,-1.954 -2.664,-3.967 -4.003,-6.024 -1.125,2.431 -2.308,4.845 -3.46,7.227 -1.154,-2.382 -2.338,-4.795 -3.464,-7.226 -1.337,2.058 -2.691,4.071 -4,6.025 -0.94,-2.246 -1.843,-4.496 -2.649,-6.743 -1.126,1.326 -2.258,2.616 -3.378,3.863 -0.188,0.301 -0.373,0.6 -0.558,0.898 0.115,-1.609 0.371,-3.616 0.644,-5.647 0.118,-0.887 0.251,-1.763 0.396,-2.616 0.086,-0.625 0.182,-1.25 0.287,-1.875 h 0.014 c 0.135,-0.601 5.703,-1.081 12.685,-1.081 7.182,0 12.862,0.508 12.689,1.132 0.027,0.14 0.055,0.279 0.082,0.418 h 0.002 c 0.014,0.07 0.027,0.141 0.04,0.211 0.056,0.294 0.111,0.595 0.164,0.901 0.005,0.026 0.009,0.053 0.014,0.08 0.159,0.917 0.306,1.878 0.435,2.838 0.274,2.027 0.548,3.96 0.666,5.566" fill="#ffcd00" id="path29"/>
      <path d="m 490.8005,467.2757 c -0.008,-0.084 -0.057,-0.109 -0.073,-0.118 -0.062,-0.032 -0.171,-0.037 -0.308,-0.016 -0.035,0.005 -0.071,0.013 -0.11,0.021 -4.333,1.001 -8.571,1.523 -12.75,1.519 -4.178,0.003 -8.415,-0.519 -12.747,-1.522 -0.312,-0.072 -0.488,-0.034 -0.502,0.111 -0.022,0.233 0.34,0.344 0.497,0.381 4.339,1.005 8.575,1.529 12.753,1.527 4.177,0.003 8.414,-0.52 12.755,-1.525 0.189,-0.044 0.507,-0.154 0.485,-0.378 m -3.502,-1.316 c 0.648,-0.485 1.279,-0.982 1.911,-1.486 -3.928,0.84 -7.813,1.281 -11.65,1.278 -3.838,0.002 -7.724,-0.44 -11.653,-1.281 0.632,0.504 1.265,1.002 1.913,1.487 0.099,0.075 0.199,0.149 0.3,0.224 -0.118,0.036 -0.236,0.07 -0.354,0.105 -0.77,0.225 -1.554,0.427 -2.342,0.617 4.117,0.912 8.152,1.39 12.137,1.389 3.983,0.003 8.018,-0.475 12.134,-1.386 -0.789,-0.19 -1.571,-0.393 -2.34,-0.618 -0.119,-0.035 -0.237,-0.069 -0.356,-0.105 0.1,-0.074 0.2,-0.149 0.3,-0.224 m 2.872,-2.353 c -0.013,-0.086 -0.06,-0.112 -0.077,-0.12 -0.06,-0.034 -0.165,-0.041 -0.294,-0.022 -0.032,0.004 -0.067,0.011 -0.101,0.018 -4.085,0.912 -8.139,1.387 -12.139,1.384 -3.999,0.001 -8.054,-0.474 -12.136,-1.386 -0.035,-0.008 -0.069,-0.013 -0.102,-0.018 -0.352,-0.052 -0.373,0.092 -0.38,0.14 -0.033,0.233 0.306,0.336 0.452,0.369 4.098,0.915 8.16,1.392 12.166,1.391 4.008,0.003 8.069,-0.474 12.168,-1.389 0.179,-0.04 0.475,-0.142 0.443,-0.367 m -0.045,0.643 c -0.706,0.574 -1.566,1.254 -2.256,1.773 0.73,0.21 1.873,0.502 2.72,0.694 -0.161,-0.887 -0.329,-1.742 -0.464,-2.467 m -12.566,-1.666 c -5.797,0 -9.759,0.314 -11.472,0.643 3.856,0.82 7.687,1.251 11.472,1.25 3.789,0.002 7.622,-0.428 11.483,-1.249 -1.713,-0.33 -5.684,-0.644 -11.483,-0.644 m -12.987,4.114 c 0.838,-0.189 1.94,-0.466 2.676,-0.678 -0.736,-0.555 -1.505,-1.15 -2.222,-1.733 -0.161,0.827 -0.312,1.627 -0.454,2.411 m -0.894,6.089 c 1.128,-1.398 2.39,-2.796 3.788,-4.194 -0.906,-0.17 -1.818,-0.357 -2.732,-0.57 -0.146,-0.034 -0.267,-0.079 -0.372,-0.129 -0.284,1.676 -0.516,3.292 -0.684,4.893 m 6.379,2.397 c 1.128,-1.915 2.441,-3.829 3.936,-5.744 -2.137,-0.148 -4.293,-0.429 -6.474,-0.837 0.907,2.194 1.753,4.387 2.538,6.581 m 7.524,1.229 v 0.001 c -0.089,-0.001 2.603,-5.772 3.365,-6.959 -1.134,0.074 -2.261,0.115 -3.386,0.114 -1.118,0 -2.239,-0.04 -3.365,-0.113 1.282,2.319 2.411,4.639 3.386,6.958 v -0.001 m 10.012,-7.806 c -2.149,0.401 -4.273,0.678 -6.379,0.827 1.486,1.944 2.786,3.888 3.901,5.832 0.768,-2.22 1.594,-4.439 2.478,-6.659 m 3.929,4.29 c -0.01,0.002 -0.273,-2.457 -0.726,-5.018 -0.113,0.058 -0.246,0.109 -0.408,0.147 -0.893,0.208 -1.783,0.39 -2.667,0.557 1.408,1.438 2.674,2.876 3.801,4.314 m 0.487,1.445 c -1.216,-1.646 -2.616,-3.292 -4.201,-4.938 -0.942,2.254 -1.818,4.508 -2.629,6.762 -1.158,-2.019 -2.521,-4.037 -4.091,-6.056 -1.338,2.429 -2.506,4.858 -3.507,7.287 -1,-2.428 -2.171,-4.857 -3.51,-7.285 -1.567,2.019 -2.93,4.037 -4.087,6.057 -0.812,-2.255 -1.69,-4.509 -2.631,-6.763 -1.591,1.632 -2.997,3.263 -4.221,4.894 -0.031,0.002 0.414,-4.372 0.767,-6.402 0.017,-0.113 0.034,-0.225 0.052,-0.338 -0.078,-0.122 -0.106,-0.248 -0.094,-0.363 0.013,-0.124 0.08,-0.246 0.206,-0.334 0.157,-0.953 0.331,-1.891 0.509,-2.769 0.011,-0.055 0.023,-0.109 0.033,-0.164 -0.086,-0.13 -0.118,-0.267 -0.099,-0.393 0.035,-0.225 0.226,-0.454 0.643,-0.465 2.088,-0.867 11.244,-0.896 12.41,-0.896 1.168,0 10.371,0.029 12.428,0.903 0.129,0.006 0.25,0.027 0.346,0.078 0.152,0.082 0.246,0.215 0.27,0.385 0.017,0.106 -0.003,0.221 -0.061,0.333 0.016,0.072 0.03,0.144 0.045,0.215 0.183,0.898 0.36,1.857 0.52,2.832 0.077,0.075 0.134,0.164 0.146,0.28 0.01,0.092 -0.008,0.191 -0.054,0.29 0.022,0.138 0.043,0.276 0.064,0.414 0.354,2.025 0.777,6.437 0.746,6.436" id="path31"/>
      <path d="m 476.086,466.53 h 2.991 v 0.934 h -2.991 z m 3.44,-0.449 h -3.888 v 1.831 h 3.888 z m -7.8191,1.0471 c -0.113,0 -0.23,-0.005 -0.348,-0.015 -0.925,-0.081 -1.465,-0.432 -1.45,-0.596 0.011,-0.126 0.415,-0.351 1.183,-0.351 0.112,0 0.229,0.006 0.348,0.016 0.423,0.037 0.829,0.141 1.112,0.284 0.24,0.122 0.343,0.247 0.337,0.312 -0.011,0.125 -0.415,0.35 -1.182,0.35 m -0.615,-1.41 c -0.95,0 -1.59,0.298 -1.63,0.76 -0.052,0.599 0.895,0.997 1.858,1.082 1.134,0.099 1.971,-0.221 2.016,-0.743 0.014,-0.163 -0.043,-0.477 -0.581,-0.751 -0.337,-0.171 -0.79,-0.288 -1.276,-0.331 -0.132,-0.012 -0.261,-0.017 -0.387,-0.017 m 12.3657,1.41 c -0.767,0 -1.172,-0.225 -1.183,-0.35 -0.005,-0.065 0.097,-0.19 0.338,-0.312 0.282,-0.143 0.688,-0.247 1.111,-0.284 0.119,-0.01 0.236,-0.016 0.348,-0.016 0.768,0 1.173,0.225 1.184,0.351 0.014,0.164 -0.525,0.515 -1.45,0.596 -0.119,0.01 -0.235,0.015 -0.348,0.015 m 0.614,-1.41 c -0.125,0 -0.254,0.005 -0.387,0.017 -0.485,0.043 -0.938,0.16 -1.275,0.331 -0.54,0.274 -0.596,0.588 -0.582,0.751 0.046,0.522 0.88,0.842 2.018,0.743 0.962,-0.085 1.909,-0.483 1.856,-1.082 -0.04,-0.462 -0.68,-0.76 -1.63,-0.76" id="path33"/>
    </g>
  </g>
</svg>